<svg id="Layer_1" data-name="Layer 1" xmlns="http://www.w3.org/2000/svg" viewBox="0 0 191.92 251.3"><defs><style>.cls-1{fill:#fff;}</style></defs><title>if</title><path class="cls-1" d="M310.3,348.8c0-13.65,0-15.4-9.45-21.7L297.7,325c-1.4-1.4-1.4-5.25.35-6.3,8.05-2.8,28-11.9,36.05-17.15,1.75,0,3.15.7,3.5,2.1-.7,12.25-1.4,29.05-1.4,43.4v63c0,25.2.7,28.7,13.3,30.45l7.35,1c2.45,1.75,1.75,7.7-.7,8.75-10.5-.7-20.65-1-32.9-1-12.6,0-23.1.35-32.9,1-2.45-1-3.15-7-.7-8.75l7.35-1c13-1.75,13.3-5.25,13.3-30.45ZM339.35,249c0,12.6-8.75,18.2-18.55,18.2-10.85,0-17.85-8.05-17.85-17.5,0-11.55,8.4-18.9,18.9-18.9S339.35,239.25,339.35,249Z" transform="translate(-288.13 -198.99)"/><path class="cls-1" d="M403.75,326c-6,0-6,.7-6,10.15V410c0,25.2.7,29.4,13.3,30.45l12.6,1c2.45,1.75,1.75,7.7-.7,8.75-15.75-.7-25.9-1-38.15-1-12.6,0-23.1.35-33.6,1-2.45-1-3.15-7-.7-8.75l8-1c13-1.75,13.3-5.25,13.3-30.45V336.2c0-9.45,0-10.15-7-10.15H352.65a4.9,4.9,0,0,1-1.05-6.65L366.65,312c2.8-1.4,5.25-3.5,5.25-7,0-20.3,2.45-42,10.85-61.6,8.75-20,28.35-44.45,63-44.45,18.55,0,34.3,8.4,34.3,21,0,7-6.65,12.6-13.3,12.6-3.85,0-5.95-1.4-8.4-4.2-6.65-7.7-16.45-15.4-28-15.4-10.85,0-19.6,6.65-24.85,19.25-6.3,16.1-7.7,41.65-7.7,59.15v10.15c0,9.45,0,9.8,6,9.8h39.9c3.85,3.5,1.4,13.3-2.45,14.7Z" transform="translate(-288.13 -198.99)"/></svg>